{"title":"The.Assassination.of.Jesse.James.by.the.Coward.Robert.Ford-P2PDL","uid":13110364,"size":1091592975,"categoryP":"video","categoryS":"hd___movies","magnet":"?xt=urn:btih:95e2667c4b07063abe098ba40df8164c203a62d3&amp;dn=The.Assassination.of.Jesse.James.by.the.Coward.Robert.Ford-P2PDL&amp;tr=udp%3A%2F%2Ftracker.leechers-paradise.org%3A6969&amp;tr=udp%3A%2F%2Fzer0day.ch%3A1337&amp;tr=udp%3A%2F%2Fopen.demonii.com%3A1337&amp;tr=udp%3A%2F%2Ftracker.coppersurfer.tk%3A6969&amp;tr=udp%3A%2F%2Fexodus.desync.com%3A6969","seeders":44,"leechers":16,"uploader":"VYTOP2PDL","files":7,"time":1451464757,"description":"____    ____ ____    ____ .___________.  ______   \r\n     /   /      /   / |           | /  __    \r\n    /   /      /   /  `---|  |----`|  |  |  | \r\n        /     _    _/       |  |     |  |  |  | \r\n       /        |  |         |  |     |  `--'  | \r\n    __/         |__|         |__|      ______/  \r\n                                                  \r\nPresenting Small Encodes with quality for years!\r\n                                                                                                   \r\n                                                                                                   \r\n\r\nThe.Assassination.of.Jesse.James.by.the.Coward.Robert.Ford.2007.BRRip.720p.x264-PRiSTiNE\r\n\r\n\r\nGenre: Biography, Crime, Drama \nhttp://www.imdb.com/title/tt0443680/\r\n\r\n\r\nFormat                                   : MPEG-4\r\nFile size                                : 1 021 MiB\r\nDuration                                 : 2h 39mn\r\nOverall bit rate                         : 894 Kbps\r\n\r\nVideo\r\nFormat                                   : AVC\r\nBit rate                                 : 811 Kbps\r\nWidth                                    : 1 264 pixels\r\nHeight                                   : 528 pixels\r\nDisplay aspect ratio                     : 2.40:1\r\nFrame rate mode                          : Constant\r\nFrame rate                               : 23.976 fps\r\nBit depth                                : 8 bits\r\nStream size                              : 926 MiB (91%)\r\nWriting library                          : x264\r\n\r\nAudio\r\nFormat                                   : AAC\r\nBit rate mode                            : Variable\r\nBit rate                                 : 79.9 Kbps\r\nChannel(s)                               : 2 channels\r\nChannel positions                        : Front: L R\r\nSampling rate                            : 48.0 KHz \r\nStream size                              : 91.2 MiB (9%)\r\nLanguage                                 : English\r\n\r\nSubtitle                                 : Yes (English)\r\n\r\nScreen Shots: Click to view)\r\n \nhttp://ititli.com/QB \nhttp://ititli.com/QN \nhttp://ititli.com/QP \nhttp://ititli.com/Qf \nhttp://ititli.com/Qu \nhttp://ititli.com/Qv \nhttp://ititli.com/QR \nhttp://ititli.com/Qy \nhttp://ititli.com/Q3\r\n\r\n----------------------------------------------------------------------------------------------------\r\n\r\n\r\nEncoder Notes: Looking For Early Access To Anything You Can Provide WEBDL, DVDScr, DVDR, BluRay,\r\nDirect Audio, Music Releases and Seedboxes. If You Got anything to offer please contact us.\r\n\r\nSupport us by donating BC - 1FgwdzPsd1y25Gea8wP1qni35uGCtmkRCD\r\n\r\nSens some love!\r\nFind us and join us!","torrent":{"xt":"urn:btih:95e2667c4b07063abe098ba40df8164c203a62d3","amp;dn":"The.Assassination.of.Jesse.James.by.the.Coward.Robert.Ford-P2PDL","amp;tr":["udp%3A%2F%2Ftracker.leechers-paradise.org%3A6969","udp%3A%2F%2Fzer0day.ch%3A1337","udp%3A%2F%2Fopen.demonii.com%3A1337","udp%3A%2F%2Ftracker.coppersurfer.tk%3A6969","udp%3A%2F%2Fexodus.desync.com%3A6969"],"infoHash":"95e2667c4b07063abe098ba40df8164c203a62d3","infoHashBuffer":{"type":"Buffer","data":[149,226,102,124,75,7,6,58,190,9,139,164,13,248,22,76,32,58,98,211]},"announce":[],"urlList":[]}}